<svg xmlns="http://www.w3.org/2000/svg" xmlns:xlink="http://www.w3.org/1999/xlink" viewBox="0,0,256,256" width="64px" height="64px" fill-rule="nonzero"><g fill="none" fill-rule="nonzero" stroke="none" stroke-width="1" stroke-linecap="butt" stroke-linejoin="miter" stroke-miterlimit="10" stroke-dasharray="" stroke-dashoffset="0" font-family="none" font-weight="none" font-size="none" text-anchor="none" style="mix-blend-mode: normal"><g transform="scale(4,4)"><path d="M59,48h-30l-4,-5h34z" fill="#acb7d0"></path><path d="M54,53h-25.552c-0.936,0 -1.842,0.328 -2.561,0.927l-9.247,7.706c-0.651,0.543 -1.64,0.08 -1.64,-0.768v-6.865c0,-0.552 -0.448,-1 -1,-1h-4c-2.761,0 -5,-2.239 -5,-5v-32c0,-2.761 2.239,-5 5,-5h44c2.761,0 5,2.239 5,5v32c0,2.761 -2.239,5 -5,5z" fill="#1e1e22"></path><path d="M15.004,5l-0.004,25.8l8,9l8,-9v-25.8c0,-1.105 -0.895,-2 -2,-2h-11.996c-1.105,0 -2,0.895 -2,2z" fill="#4f677e"></path><path d="M15,30.107l8,-2.107l8,2.107l-6,6.893h-3z" fill="#faefde"></path><path d="M23,29h-8v-26h5c1.657,0 3,1.343 3,3z" fill="#3e3c89"></path><path d="M32,53l-7,-10h34l-0.419,7l-2.581,3z" fill="#acb7d0"></path><path d="M54,10h-22v-5c0,-1.65 -1.35,-3 -3,-3h-12c-1.65,0 -3,1.35 -3,3v5h-4c-3.31,0 -6,2.69 -6,6v32c0,3.31 2.69,6 6,6h4v6.87c0,0.78 0.44,1.47 1.15,1.81c0.28,0.12 0.57,0.19 0.85,0.19c0.46,0 0.91,-0.16 1.28,-0.47l9.25,-7.7c0.54,-0.45 1.22,-0.7 1.92,-0.7h3.55h22c3.31,0 6,-2.69 6,-6v-5v-27c0,-3.31 -2.69,-6 -6,-6zM16,5c0,-0.55 0.45,-1 1,-1h12c0.55,0 1,0.45 1,1v5v2v16.72l-6,-1.5v-12.22c0,-0.553 -0.448,-1 -1,-1c-0.552,0 -1,0.447 -1,1v12.22l-6,1.5v-16.72v-2zM25.926,35h-5.853l-3.811,-4.285l6.738,-1.684l6.738,1.684zM25.25,53.16l-9.25,7.71v-6.87c0,-1.1 -0.9,-2 -2,-2h-4c-2.21,0 -4,-1.79 -4,-4v-32c0,-2.21 1.79,-4 4,-4h4v18.8c0,0.24 0.09,0.48 0.25,0.66l4.621,5.198c0.002,0.002 0.002,0.004 0.004,0.006l3.378,3.8c0.043,0.048 0.102,0.073 0.153,0.112c0.171,0.133 0.371,0.224 0.594,0.224c0.223,0 0.423,-0.091 0.595,-0.224c0.05,-0.039 0.11,-0.064 0.153,-0.112l3.378,-3.8c0.002,-0.002 0.002,-0.004 0.004,-0.006l4.621,-5.198c0.159,-0.18 0.249,-0.42 0.249,-0.66v-18.8h22c2.21,0 4,1.79 4,4v26h-33c-0.373,0 -0.715,0.207 -0.887,0.538c-0.172,0.331 -0.146,0.729 0.068,1.035l5.898,8.427h-1.629c-1.17,0 -2.31,0.41 -3.2,1.16zM32.521,52l-2.583,-3.69c0.032,-0.099 0.062,-0.2 0.062,-0.31v-1c0,-0.553 -0.448,-1 -1,-1c-0.208,0 -0.389,0.078 -0.549,0.186l-1.531,-2.186h31.08v4c0,2.206 -1.794,4 -4,4z" fill="#3b2f72"></path><path d="M34,46c-0.552,0 -1,0.447 -1,1v2c0,0.553 0.448,1 1,1c0.552,0 1,-0.447 1,-1v-2c0,-0.553 -0.448,-1 -1,-1zM39,46c-0.552,0 -1,0.447 -1,1v2c0,0.553 0.448,1 1,1c0.552,0 1,-0.447 1,-1v-2c0,-0.553 -0.448,-1 -1,-1zM44,46c-0.552,0 -1,0.447 -1,1v2c0,0.553 0.448,1 1,1c0.552,0 1,-0.447 1,-1v-2c0,-0.553 -0.448,-1 -1,-1zM49,46c-0.552,0 -1,0.447 -1,1v2c0,0.553 0.448,1 1,1c0.552,0 1,-0.447 1,-1v-2c0,-0.553 -0.448,-1 -1,-1zM55,49v-2c0,-0.553 -0.448,-1 -1,-1c-0.552,0 -1,0.447 -1,1v2c0,0.553 0.448,1 1,1c0.552,0 1,-0.447 1,-1zM23,12c0.552,0 1,-0.447 1,-1v-4c0,-0.553 -0.448,-1 -1,-1c-0.552,0 -1,0.447 -1,1v4c0,0.553 0.448,1 1,1z" fill="#3b2f72"></path></g></g></svg>