<!DOCTYPE svg PUBLIC "-//W3C//DTD SVG 1.1//EN" "http://www.w3.org/Graphics/SVG/1.1/DTD/svg11.dtd">
<!-- Uploaded to: SVG Repo, www.svgrepo.com, Transformed by: SVG Repo Mixer Tools -->
<svg version="1.1" id="Icons" xmlns="http://www.w3.org/2000/svg" xmlns:xlink="http://www.w3.org/1999/xlink" viewBox="0 0 32.00 32.00" xml:space="preserve" width="256px" height="256px" fill="#000000" stroke="#000000">
<g id="SVGRepo_bgCarrier" stroke-width="0"/>
<g id="SVGRepo_tracerCarrier" stroke-linecap="round" stroke-linejoin="round"/>
<g id="SVGRepo_iconCarrier"> <style type="text/css"> .st0{fill:none;stroke:#000000;stroke-width:0.00032;stroke-linecap:round;stroke-linejoin:round;stroke-miterlimit:10;} </style> <path d="M13,14h4c0.6,0,1-0.4,1-1s-0.4-1-1-1h-1c0-0.6,0.4-1,1-1h2c1.7,0,3-1.3,3-3s-1.3-3-3-3h-2c-0.6,0-1-0.4-1-1V2 c0-0.6-0.4-1-1-1s-1,0.4-1,1v2c0,1.7,1.3,3,3,3h2c0.6,0,1,0.4,1,1s-0.4,1-1,1h-2c-1.7,0-3,1.3-3,3h-1c-0.6,0-1,0.4-1,1 S12.4,14,13,14z"/> <path d="M28.2,18.3C26.9,16.9,25,16,23,16H9.3c-3.9,0-7.1,3-7.2,6.8c-0.1,1.9,0.6,3.7,2,5.1C5.3,29.2,7.1,30,9,30 c3,0,5.6-1.9,6.6-4.7c0.1-0.4,0.7-0.4,0.8,0c1.1,3.2,4.3,5.1,7.7,4.6c3-0.5,5.5-3,5.9-6.1C30.2,21.8,29.6,19.8,28.2,18.3z M11,24h-1 v1c0,0.6-0.4,1-1,1s-1-0.4-1-1v-1H7c-0.6,0-1-0.4-1-1s0.4-1,1-1h1v-1c0-0.6,0.4-1,1-1s1,0.4,1,1v1h1c0.6,0,1,0.4,1,1S11.6,24,11,24z M22.1,20.6c0-0.1,0.1-0.2,0.2-0.3c0.4-0.4,1-0.4,1.4,0c0.1,0.1,0.2,0.2,0.2,0.3c0,0.1,0.1,0.3,0.1,0.4s0,0.3-0.1,0.4 s-0.1,0.2-0.2,0.3C23.5,21.9,23.3,22,23,22c-0.3,0-0.5-0.1-0.7-0.3c-0.1-0.1-0.2-0.2-0.2-0.3c0-0.1-0.1-0.3-0.1-0.4 S22,20.7,22.1,20.6z M21.7,23.7C21.5,23.9,21.3,24,21,24c-0.3,0-0.5-0.1-0.7-0.3c-0.1-0.1-0.2-0.2-0.2-0.3S20,23.1,20,23 s0-0.3,0.1-0.4c0-0.1,0.1-0.2,0.2-0.3c0.2-0.2,0.6-0.3,0.9-0.3c0.1,0,0.1,0,0.2,0.1c0.1,0,0.1,0,0.2,0.1c0.1,0,0.1,0.1,0.2,0.1 c0.1,0.1,0.2,0.2,0.2,0.3c0,0.1,0.1,0.3,0.1,0.4s0,0.3-0.1,0.4C21.9,23.5,21.8,23.6,21.7,23.7z M23.9,25.4c0,0.1-0.1,0.2-0.2,0.3 C23.5,25.9,23.3,26,23,26c-0.3,0-0.5-0.1-0.7-0.3c-0.1-0.1-0.2-0.2-0.2-0.3S22,25.1,22,25s0-0.3,0.1-0.4c0-0.1,0.1-0.2,0.2-0.3 c0.2-0.2,0.6-0.3,0.9-0.3c0.1,0,0.1,0,0.2,0.1c0.1,0,0.1,0,0.2,0.1c0.1,0,0.1,0.1,0.2,0.1c0.1,0.1,0.2,0.2,0.2,0.3 c0,0.1,0.1,0.3,0.1,0.4S24,25.3,23.9,25.4z M25.9,23.4c0,0.1-0.1,0.2-0.2,0.3C25.5,23.9,25.3,24,25,24c-0.3,0-0.5-0.1-0.7-0.3 c-0.1-0.1-0.2-0.2-0.2-0.3S24,23.1,24,23s0-0.3,0.1-0.4c0-0.1,0.1-0.2,0.2-0.3c0.2-0.2,0.6-0.3,0.9-0.3c0.1,0,0.1,0,0.2,0.1 c0.1,0,0.1,0,0.2,0.1c0,0,0.1,0.1,0.2,0.1c0.1,0.1,0.2,0.2,0.2,0.3c0,0.1,0.1,0.3,0.1,0.4S26,23.3,25.9,23.4z"/> </g>
</svg>